<svg width="25" height="25" viewBox="0 0 25 25" fill="none" xmlns="http://www.w3.org/2000/svg">
<g clip-path="url(#clip0)">
<path d="M0.0415039 6.32198V19.2402C0.0415039 19.513 0.150554 19.7746 0.344664 19.9675C0.538774 20.1604 0.802044 20.2688 1.07656 20.2688C1.35107 20.2688 1.61434 20.1604 1.80845 19.9675C2.00256 19.7746 2.11161 19.513 2.11161 19.2402V6.32198C2.11161 6.0492 2.00256 5.78759 1.80845 5.5947C1.61434 5.40182 1.35107 5.29346 1.07656 5.29346C0.802044 5.29346 0.538774 5.40182 0.344664 5.5947C0.150554 5.78759 0.0415039 6.0492 0.0415039 6.32198Z" fill="#FFFEFA"/>
<path d="M5.90682 24.9862H19.6523C19.9268 24.9862 20.1901 24.8779 20.3842 24.685C20.5783 24.4921 20.6874 24.2305 20.6874 23.9577C20.6874 23.6849 20.5783 23.4233 20.3842 23.2304C20.1901 23.0376 19.9268 22.9292 19.6523 22.9292H5.90682C5.63231 22.9292 5.36904 23.0376 5.17493 23.2304C4.98082 23.4233 4.87177 23.6849 4.87177 23.9577C4.87177 24.2305 4.98082 24.4921 5.17493 24.685C5.36904 24.8779 5.63231 24.9862 5.90682 24.9862Z" fill="#FFFEFA"/>
<path d="M22.93 6.01353C22.93 10.347 22.8472 14.6737 22.8403 19.0415C22.8403 19.3143 22.9494 19.5759 23.1435 19.7688C23.3376 19.9617 23.6009 20.07 23.8754 20.07C24.1499 20.07 24.4132 19.9617 24.6073 19.7688C24.8014 19.5759 24.9104 19.3143 24.9104 19.0415C24.9104 14.708 24.9932 10.3813 25.0001 6.04781C25.0001 5.77503 24.8911 5.51342 24.697 5.32053C24.5029 5.12765 24.2396 5.01929 23.9651 5.01929C23.6906 5.01929 23.4273 5.12765 23.2332 5.32053C23.0391 5.51342 22.93 5.77503 22.93 6.04781V6.01353Z" fill="#FFFEFA"/>
<path d="M2.11161 6.35635V5.49239C2.11161 5.21961 2.00256 4.958 1.80845 4.76511C1.61434 4.57223 1.35107 4.46387 1.07656 4.46387C0.802044 4.46387 0.538774 4.57223 0.344664 4.76511C0.150554 4.958 0.0415039 5.21961 0.0415039 5.49239V6.35635C0.0415039 6.62913 0.150554 6.89074 0.344664 7.08363C0.538774 7.27652 0.802044 7.38488 1.07656 7.38488C1.35107 7.38488 1.61434 7.27652 1.80845 7.08363C2.00256 6.89074 2.11161 6.62913 2.11161 6.35635Z" fill="#FFFEFA"/>
<path d="M5.59615 2.05694C9.94338 2.05694 14.2906 2.05694 18.6378 2.09123C18.9123 2.09123 19.1756 1.98287 19.3697 1.78998C19.5638 1.5971 19.6729 1.33549 19.6729 1.0627C19.6729 0.789922 19.5638 0.528313 19.3697 0.335428C19.1756 0.142542 18.9123 0.0341797 18.6378 0.0341797C14.2906 0.0341797 9.94338 0.0341797 5.59615 0.0341797C5.32164 0.0341797 5.05837 0.142542 4.86426 0.335428C4.67015 0.528313 4.5611 0.789922 4.5611 1.0627C4.5611 1.33549 4.67015 1.5971 4.86426 1.78998C5.05837 1.98287 5.32164 2.09123 5.59615 2.09123V2.05694Z" fill="#FFFEFA"/>
<path d="M24.9933 5.82822C24.9519 4.07973 23.6132 2.55066 22.3367 1.44671C21.2249 0.480628 19.7826 -0.0249276 18.3069 0.0341994C16.9751 0.0341994 16.9751 2.09125 18.3069 2.09125C19.2331 2.01432 20.1526 2.30248 20.8669 2.8935C21.6742 3.57918 22.8956 4.71056 22.937 5.81451C22.937 7.13787 25.0071 7.13787 25.0071 5.81451L24.9933 5.82822Z" fill="#FFFEFA"/>
<path d="M2.04936 5.63629C2.31157 3.9358 3.73305 2.11188 5.59614 2.06388C6.92101 2.06388 6.92791 0.00683594 5.59614 0.00683594C2.836 0.0754042 0.462278 2.46158 0.0758582 5.08775C-0.124252 6.38369 1.86995 6.93909 2.07006 5.63629H2.04936Z" fill="#FFFEFA"/>
<path d="M5.81712 22.9294C3.74701 22.6894 1.96672 21.1397 2.07713 18.9044C2.13923 17.581 0.0691223 17.581 0.00701904 18.9044C0.0218889 20.4968 0.62331 22.0287 1.69761 23.2105C2.805 24.297 4.28257 24.9308 5.83782 24.9864C7.16269 25.1441 7.14889 23.0871 5.83782 22.9294H5.81712Z" fill="#FFFEFA"/>
<path d="M19.6522 24.9932C22.4676 24.7669 24.8275 21.6813 24.9103 19.0072C24.9517 17.6838 22.8816 17.6838 22.8402 19.0072C22.7695 19.9395 22.3939 20.8232 21.7706 21.5236C21.3083 22.0448 20.3906 22.895 19.6522 22.9361C18.3343 23.039 18.3205 25.1029 19.6522 24.9932Z" fill="#FFFEFA"/>
<path d="M7.42496 7.1312C4.85113 9.4351 5.25135 14.4337 7.47326 16.8542C9.9919 19.5969 14.3253 19.5969 17.1338 17.2793C19.9422 14.9617 20.0526 10.0591 17.4305 7.4809C14.484 4.60103 10.5301 4.68332 7.42496 7.1312C6.38301 7.95402 7.85968 9.40081 8.88784 8.58485C13.9458 4.58046 20.7841 12.0955 15.4846 15.9285C14.523 16.6667 13.3187 17.0218 12.1075 16.9241C10.8963 16.8264 9.76542 16.2831 8.93614 15.4005C7.51467 13.7755 7.17655 10.1208 8.88784 8.58485C9.88149 7.69346 8.41171 6.24667 7.42496 7.1312Z" fill="#FFFEFA"/>
<path d="M18.5067 4.77915L18.4446 5.14256C18.4089 5.29507 18.4075 5.45354 18.4407 5.60662C18.4738 5.75971 18.5405 5.90364 18.6361 6.02811C18.7317 6.15259 18.8538 6.25454 18.9937 6.32667C19.1335 6.3988 19.2877 6.43932 19.4451 6.44536C19.7408 6.46059 20.0335 6.38096 20.2801 6.21823C20.5267 6.0555 20.7141 5.81828 20.8147 5.54161C20.9152 5.26493 20.9236 4.96347 20.8385 4.68172C20.7534 4.39997 20.5794 4.15287 20.3422 3.9769C20.1244 3.8434 19.8735 3.77271 19.6177 3.77271C19.3618 3.77271 19.1109 3.8434 18.8931 3.9769C18.6404 4.16322 18.4522 4.42299 18.3545 4.72027C18.2568 5.01754 18.2546 5.33763 18.348 5.63625C18.3918 5.80471 18.4782 5.95927 18.5989 6.08527C18.7197 6.21127 18.8708 6.30453 19.038 6.35622L19.2657 6.41107C19.3981 6.4517 19.5373 6.46553 19.6751 6.45173C19.8129 6.43793 19.9465 6.39679 20.068 6.33074C20.1895 6.2647 20.2965 6.17508 20.3825 6.06722C20.4685 5.95935 20.5319 5.83543 20.5688 5.70278C20.6058 5.57014 20.6156 5.43147 20.5976 5.295C20.5797 5.15853 20.5343 5.02703 20.4643 4.90829C20.3942 4.78956 20.3009 4.68599 20.1899 4.60374C20.0788 4.52149 19.9523 4.46222 19.8178 4.42945L19.5901 4.36774L20.2801 5.0877C20.2999 5.18941 20.2878 5.2947 20.2456 5.3894L19.873 5.75967C19.1277 5.96538 18.9414 5.75967 19.3209 5.07399C19.6453 4.63515 19.666 4.38831 19.383 4.38831L20.3836 5.6911L20.4388 5.32769C20.5053 5.06877 20.4713 4.79445 20.3434 4.55936C20.2155 4.32428 20.0032 4.1457 19.7488 4.05918C19.4844 3.9896 19.2031 4.02609 18.9655 4.16078C18.728 4.29548 18.5533 4.51757 18.4791 4.77915H18.5067Z" fill="#FFFEFA"/>
</g>
<defs>
<clipPath id="clip0">
<rect width="25" height="25" fill="white"/>
</clipPath>
</defs>
</svg>
