<svg width="403" height="289" viewBox="0 0 403 289" fill="none" xmlns="http://www.w3.org/2000/svg">
<path d="M113.148 22.7548C81.3737 -18.7626 -5.27511 79.2927 13.9623 100.932C38.009 127.98 200.007 -1.47398 217.02 16.5323C222.237 22.0541 85.8572 110.296 22.0868 183.341C19.4823 186.324 22.4454 190.574 26.1952 189.301C123.12 156.38 228.616 105.134 238.706 88.2139C274.724 27.8096 308.093 -19.4249 236.867 51.1592C149.086 138.149 141.592 185.08 120.417 214.892C99.2424 244.705 76.3407 294.813 128.541 258.908C180.742 223.004 165.659 227.693 200.705 197.58C283.172 126.721 371.871 12.1361 286.013 35.9493C200.155 59.7625 115.39 255.401 156.216 236.939C197.042 218.477 388.501 111.34 394.387 142.172C399.251 167.647 136.112 297.545 158.356 267.128C180.6 236.711 371.347 149.226 347.409 224.221" stroke="#FFFEFA" stroke-width="3" stroke-linecap="round"/>
</svg>
