<svg width="20" height="20" viewBox="0 0 20 20" fill="none" xmlns="http://www.w3.org/2000/svg">
<path d="M10 -0.000488281C4.486 -0.000488281 0 4.39001 0 9.78662C0 15.1832 4.486 19.5737 10 19.5737C15.514 19.5737 20 15.1832 20 9.78662C20 4.39001 15.514 -0.000488281 10 -0.000488281ZM10 17.4912C5.65933 17.4912 2.12762 14.0351 2.12762 9.78662C2.12762 5.53815 5.65933 2.08204 10 2.08204C14.3407 2.08204 17.8724 5.53815 17.8724 9.78662C17.8724 14.0351 14.3407 17.4912 10 17.4912Z" fill="#FFFEFA"/>
<path d="M15.2116 9.48447H10.7176V4.196C10.7176 3.75096 10.3489 3.39014 9.89419 3.39014C9.43947 3.39014 9.0708 3.75096 9.0708 4.196V10.2903C9.0708 10.7354 9.43947 11.0962 9.89419 11.0962H15.2116C15.6663 11.0962 16.035 10.7354 16.035 10.2903C16.035 9.84529 15.6663 9.48447 15.2116 9.48447Z" fill="#FFFEFA"/>
</svg>
