<svg width="20" height="25" viewBox="0 0 20 25" fill="none" xmlns="http://www.w3.org/2000/svg">
<g clip-path="url(#clip0)">
<path d="M5.48544 24.9834H10.4884C10.7096 24.9834 10.9217 24.8969 11.078 24.7428C11.2344 24.5887 11.3222 24.3798 11.3222 24.1619C11.3222 23.944 11.2344 23.735 11.078 23.581C10.9217 23.4269 10.7096 23.3403 10.4884 23.3403H5.48544C5.2643 23.3403 5.05221 23.4269 4.89583 23.581C4.73946 23.735 4.65161 23.944 4.65161 24.1619C4.65161 24.3798 4.73946 24.5887 4.89583 24.7428C5.05221 24.8969 5.2643 24.9834 5.48544 24.9834Z" fill="#FFFEFA"/>
<path d="M11.2722 23.3405V13.8186C11.2722 13.6007 11.1843 13.3918 11.0279 13.2377C10.8716 13.0836 10.6595 12.9971 10.4383 12.9971C10.2172 12.9971 10.0051 13.0836 9.84871 13.2377C9.69234 13.3918 9.60449 13.6007 9.60449 13.8186V23.3405C9.60449 23.5584 9.69234 23.7673 9.84871 23.9214C10.0051 24.0755 10.2172 24.162 10.4383 24.162C10.6595 24.162 10.8716 24.0755 11.0279 23.9214C11.1843 23.7673 11.2722 23.5584 11.2722 23.3405Z" fill="#FFFEFA"/>
<path d="M10.4884 14.3033H14.7743C14.9955 14.3033 15.2075 14.2167 15.3639 14.0626C15.5203 13.9086 15.6081 13.6996 15.6081 13.4817C15.6081 13.2638 15.5203 13.0549 15.3639 12.9008C15.2075 12.7467 14.9955 12.6602 14.7743 12.6602H10.4884C10.2673 12.6602 10.0552 12.7467 9.89882 12.9008C9.74245 13.0549 9.6546 13.2638 9.6546 13.4817C9.6546 13.6996 9.74245 13.9086 9.89882 14.0626C10.0552 14.2167 10.2673 14.3033 10.4884 14.3033Z" fill="#FFFEFA"/>
<path d="M6.25262 24.0223V13.7364C6.25262 13.5185 6.16477 13.3095 6.0084 13.1554C5.85202 13.0014 5.63994 12.9148 5.41879 12.9148C5.19765 12.9148 4.98556 13.0014 4.82918 13.1554C4.67281 13.3095 4.58496 13.5185 4.58496 13.7364V24.0223C4.58496 24.2401 4.67281 24.4491 4.82918 24.6032C4.98556 24.7573 5.19765 24.8438 5.41879 24.8438C5.63994 24.8438 5.85202 24.7573 6.0084 24.6032C6.16477 24.4491 6.25262 24.2401 6.25262 24.0223Z" fill="#FFFEFA"/>
<path d="M5.34368 12.8328H2.84219C2.62105 12.8328 2.40896 12.9193 2.25258 13.0734C2.09621 13.2275 2.00836 13.4364 2.00836 13.6543C2.00836 13.8722 2.09621 14.0812 2.25258 14.2353C2.40896 14.3893 2.62105 14.4759 2.84219 14.4759H5.34368C5.56483 14.4759 5.77691 14.3893 5.93329 14.2353C6.08966 14.0812 6.17751 13.8722 6.17751 13.6543C6.17751 13.4364 6.08966 13.2275 5.93329 13.0734C5.77691 12.9193 5.56483 12.8328 5.34368 12.8328Z" fill="#FFFEFA"/>
<path d="M3.66766 13.6542V9.19314C3.66766 8.97525 3.57981 8.76628 3.42344 8.61221C3.26706 8.45814 3.05498 8.37158 2.83383 8.37158C2.61268 8.37158 2.4006 8.45814 2.24422 8.61221C2.08785 8.76628 2 8.97525 2 9.19314V13.6542C2 13.8721 2.08785 14.0811 2.24422 14.2351C2.4006 14.3892 2.61268 14.4758 2.83383 14.4758C3.05498 14.4758 3.26706 14.3892 3.42344 14.2351C3.57981 14.0811 3.66766 13.8721 3.66766 13.6542Z" fill="#FFFEFA"/>
<path d="M5.48542 8.37158H3.07565C2.85451 8.37158 2.64242 8.45814 2.48604 8.61221C2.32967 8.76628 2.24182 8.97525 2.24182 9.19314C2.24182 9.41103 2.32967 9.62 2.48604 9.77407C2.64242 9.92814 2.85451 10.0147 3.07565 10.0147H5.48542C5.70656 10.0147 5.91865 9.92814 6.07502 9.77407C6.2314 9.62 6.31925 9.41103 6.31925 9.19314C6.31925 8.97525 6.2314 8.76628 6.07502 8.61221C5.91865 8.45814 5.70656 8.37158 5.48542 8.37158Z" fill="#FFFEFA"/>
<path d="M15.6498 13.2599L15.4913 9.43143C15.4413 8.37983 13.7736 8.37162 13.8237 9.43143L14.0238 13.2599C14.0822 14.3115 15.7498 14.3197 15.6915 13.2599H15.6498Z" fill="#FFFEFA"/>
<path d="M14.1655 8.55249H10.4383C10.2172 8.55249 10.0051 8.63905 9.84871 8.79312C9.69234 8.94719 9.60449 9.15616 9.60449 9.37405C9.60449 9.59194 9.69234 9.80091 9.84871 9.95498C10.0051 10.109 10.2172 10.1956 10.4383 10.1956H14.1655C14.3867 10.1956 14.5988 10.109 14.7551 9.95498C14.9115 9.80091 14.9994 9.59194 14.9994 9.37405C14.9994 9.15616 14.9115 8.94719 14.7551 8.79312C14.5988 8.63905 14.3867 8.55249 14.1655 8.55249Z" fill="#FFFEFA"/>
<path d="M6.31921 9.16041C6.06906 7.03257 5.82725 4.23106 7.77007 2.77691C9.32933 1.58565 13.0482 1.13379 14.5825 2.55508C15.3579 3.28627 16.542 2.12787 15.7665 1.38847C13.757 -0.50111 9.92969 -0.254643 7.58663 0.920185C4.47644 2.47293 4.30134 6.17815 4.65155 9.13576C4.77662 10.1791 6.44428 10.1874 6.31921 9.13576V9.16041Z" fill="#FFFEFA"/>
<path d="M11.2389 9.43966C11.3418 8.11404 11.3696 6.78379 11.3223 5.45511C11.3223 4.40352 9.65461 4.3953 9.65461 5.45511C9.70471 6.78364 9.67966 8.11388 9.57956 9.43966C9.49618 10.4913 11.1638 10.4913 11.2472 9.43966H11.2389Z" fill="#FFFEFA"/>
<path d="M10.5801 6.19463H15.1662C15.3873 6.19463 15.5994 6.10807 15.7558 5.954C15.9121 5.79993 16 5.59096 16 5.37307C16 5.15518 15.9121 4.94621 15.7558 4.79214C15.5994 4.63807 15.3873 4.55151 15.1662 4.55151H10.5801C10.359 4.55151 10.1469 4.63807 9.9905 4.79214C9.83413 4.94621 9.74628 5.15518 9.74628 5.37307C9.74628 5.59096 9.83413 5.79993 9.9905 5.954C10.1469 6.10807 10.359 6.19463 10.5801 6.19463Z" fill="#FFFEFA"/>
<path d="M14.3323 2.35793V4.82261C14.3323 5.0405 14.4202 5.24946 14.5766 5.40354C14.7329 5.55761 14.945 5.64416 15.1662 5.64416C15.3873 5.64416 15.5994 5.55761 15.7558 5.40354C15.9121 5.24946 16 5.0405 16 4.82261V2.35793C16 2.14004 15.9121 1.93108 15.7558 1.77701C15.5994 1.62293 15.3873 1.53638 15.1662 1.53638C14.945 1.53638 14.7329 1.62293 14.5766 1.77701C14.4202 1.93108 14.3323 2.14004 14.3323 2.35793Z" fill="#FFFEFA"/>
</g>
<defs>
<clipPath id="clip0">
<rect width="14" height="25" fill="white" transform="translate(2)"/>
</clipPath>
</defs>
</svg>
