<svg width="20" height="25" viewBox="0 0 20 25" fill="none" xmlns="http://www.w3.org/2000/svg">
<g clip-path="url(#clip0)">
<path d="M9.01777 4.20568C8.26244 2.77629 7.28857 1.46163 6.12799 0.304699C5.37413 -0.446118 4.18624 0.685547 4.91725 1.45813C5.97566 2.51657 6.85949 3.72178 7.53861 5.03266C8.02405 5.97391 9.5032 5.14692 9.01777 4.20568Z" fill="#FFFEFA"/>
<path d="M5.18561 16.4199C2.47287 13.3351 0.816674 8.09568 2.28441 4.23279C2.66133 3.24258 1.00514 2.81821 0.633921 3.79753C-1.07939 8.27523 0.850941 14.0315 3.97487 17.5625C4.68875 18.3677 5.89377 17.2089 5.18561 16.4091V16.4199Z" fill="#FFFEFA"/>
<path d="M2.28432 4.23254C2.50707 3.58326 2.90023 2.99895 3.42652 2.53504C3.66092 2.32391 3.9218 2.14117 4.20322 1.99097C4.28888 1.94744 5.03703 1.57203 5.12269 1.63188C5.99648 2.27388 6.836 0.859303 5.98506 0.222742C5.13412 -0.41382 3.50647 0.418607 2.74691 0.946354C1.75174 1.6672 1.0139 2.66267 0.633831 3.79728C0.274037 4.79293 1.93023 5.22274 2.28432 4.23254Z" fill="#FFFEFA"/>
<path d="M17.6698 22.5572C12.1815 25.5278 7.75542 19.7498 4.96844 16.1372C4.3231 15.3047 2.83823 16.1372 3.48929 16.9642C6.9159 21.3711 12.0558 27.4484 18.5321 23.9663C18.7196 23.8534 18.8537 23.6755 18.9064 23.4702C18.959 23.2649 18.9259 23.0482 18.8142 22.8656C18.7025 22.683 18.5208 22.5489 18.3073 22.4914C18.0939 22.4338 17.8653 22.4574 17.6698 22.5572Z" fill="#FFFEFA"/>
<path d="M18.7093 23.841C19.1795 23.4637 19.5444 22.9815 19.7716 22.4373C19.9032 22.0053 19.978 21.5594 19.9943 21.1098C19.9914 20.8942 19.9002 20.6883 19.7401 20.5358C19.5801 20.3834 19.364 20.2965 19.1377 20.2937C18.9123 20.2992 18.6977 20.387 18.5383 20.5388C18.3789 20.6907 18.2868 20.8951 18.281 21.1098C18.2864 21.4129 18.218 21.7131 18.0813 21.9868C17.9446 22.2605 17.7432 22.5004 17.4929 22.6876C16.6762 23.3895 17.887 24.5429 18.7093 23.841Z" fill="#FFFEFA"/>
<path d="M19.9028 20.6203C19.46 19.5113 18.8852 18.4543 18.1895 17.4701C17.8442 16.8813 17.2982 16.4226 16.6419 16.1698C15.6082 15.9141 15.1341 17.5082 16.1793 17.7476C16.1793 17.7476 16.2249 17.7476 16.3906 17.9326C16.5989 18.1349 16.7846 18.3573 16.9445 18.5963C17.4592 19.372 17.897 20.1917 18.2524 21.0446C18.6693 22.0076 20.3255 21.5887 19.9028 20.6148V20.6203Z" fill="#FFFEFA"/>
<path d="M17.1789 16.3818C16.6346 16.0928 16.0232 15.9374 15.4 15.9298C14.7768 15.9222 14.1615 16.0626 13.6095 16.3383C12.5301 16.8171 11.6849 17.7094 10.3371 17.1C9.67464 16.8008 8.84083 15.408 8.37252 14.8639C7.67578 14.0478 6.47075 15.2067 7.16179 16.0173C8.11553 17.1327 9.18349 18.9063 10.8226 19.1457C12.8443 19.4395 14.3177 16.8062 16.3108 17.791C17.2874 18.2698 18.1555 16.8661 17.1789 16.3818Z" fill="#FFFEFA"/>
<path d="M7.45289 4.83666C8.26957 7.09999 4.90006 7.81272 4.59738 9.89107C4.28898 12.0673 6.008 14.4123 7.18447 16.1207C7.75557 16.9966 9.26899 16.1751 8.66363 15.2937C7.94047 14.3171 7.32066 13.2746 6.81326 12.1816C6.43633 11.2839 6.17362 10.1033 6.86465 9.2273C7.29807 8.85281 7.76426 8.51426 8.25814 8.21533C9.53741 7.12719 9.64021 5.90304 9.10338 4.40685C8.74358 3.41664 7.08738 3.86278 7.44718 4.8421L7.45289 4.83666Z" fill="#FFFEFA"/>
</g>
<defs>
<clipPath id="clip0">
<rect width="20" height="25" fill="white"/>
</clipPath>
</defs>
</svg>
