<svg width="755" height="970" viewBox="0 0 755 970" fill="none" xmlns="http://www.w3.org/2000/svg">
<path d="M786.78 52.4972C857.592 -114.227 402.74 -56.8855 370.593 35.5808C330.411 151.164 1015.59 174.506 990.625 253.539C982.711 278.597 434.413 203.02 98.6489 257.102C94.7812 257.725 94.1734 262.883 97.7343 264.516C374.469 391.448 737.495 492.966 809.359 472.374C1058.68 400.932 1262.9 355.892 919.731 378.749C496.8 406.92 339.539 505.06 210.443 533.25C81.3475 561.439 -113.065 635.221 89.901 656.822C292.867 678.423 251.659 658.404 406.349 658.346C770.355 658.21 1279.55 565.077 1053.8 444.146C828.045 323.215 77.2666 620.959 206.507 661.162C335.746 701.366 1004.88 840.089 920.792 927.055C851.313 998.912 -15.1276 766.205 117.725 738.775C250.579 711.345 858.175 896.213 585.594 1028.15" stroke="#FFFEFA" stroke-width="3" stroke-linecap="round"/>
</svg>
