<svg width="457" height="347" viewBox="0 0 457 347" fill="none" xmlns="http://www.w3.org/2000/svg">
<path d="M303.305 308.607C330.522 355.09 435.555 270.932 418.566 246.281C397.331 215.467 208.818 319.03 193.63 298.358C188.969 292.014 344.844 225.455 422.223 162.605C425.309 160.098 423.083 155.393 419.16 156.037C312.732 173.515 194.429 208.043 181.376 223.36C134.85 277.954 93.0207 319.821 177.897 260.644C282.502 187.711 297.193 142.047 323.714 115.641C350.234 89.2351 381.523 42.841 321.626 70.4119C261.729 97.9828 278.206 95.6921 237.117 120.2C140.43 177.871 30.8394 278.206 124.217 268.039C217.594 257.873 334.885 75.9979 289.443 87.9587C244 99.9196 27.8933 176.534 26.226 144.821C24.8483 118.617 319.334 30.6409 291.605 57.4814C263.876 84.3219 51.3804 141.43 87.3838 70.3549" stroke="#FFFEFA" stroke-width="3" stroke-linecap="round"/>
</svg>
