<svg width="25" height="25" viewBox="0 0 25 25" fill="none" xmlns="http://www.w3.org/2000/svg">
<g clip-path="url(#clip0)">
<path d="M12.7765 0.402446C8.24934 0.352144 4.12459 3.52116 4.07429 8.04832C4.02399 14.1851 9.20507 19.1147 12.1226 24.0946C12.1729 24.1449 12.2232 24.1952 12.2735 24.1952C12.2232 24.4467 12.4747 24.6982 12.7262 24.5473C12.9274 24.3964 13.0783 24.1952 13.2292 23.9437C13.2795 23.8934 13.2795 23.8431 13.2795 23.7928C16.6497 19.668 20.5733 14.5373 20.9757 9.15496C21.2775 4.52719 17.7061 0.452748 12.7765 0.402446ZM19.8188 11.5191C19.3157 13.2294 18.5612 14.8894 17.6558 16.5493C17.6558 16.5996 17.6055 16.6499 17.6055 16.6499V16.7002C17.354 17.1529 17.1025 17.5554 16.8006 18.0081C16.8006 18.0584 16.7503 18.1087 16.7503 18.159C16.3982 18.7626 15.9958 19.3159 15.6437 19.8692C15.6437 19.9195 15.5934 19.9195 15.5934 19.9698C15.3419 20.3723 15.0401 20.7244 14.7383 21.1268C14.7383 21.1771 14.688 21.2274 14.6377 21.2274C14.3359 21.6298 14.034 21.9819 13.7322 22.3843C13.7322 22.4346 13.6819 22.4346 13.6819 22.4849C13.3801 22.8874 13.028 23.2898 12.7262 23.6922C12.6759 23.7425 12.6759 23.7928 12.6759 23.8934C12.6256 23.9437 12.5753 23.9437 12.525 23.994V23.9437C10.6638 19.7686 7.193 16.499 5.53304 12.2737C3.52097 7.14289 5.68395 1.65999 11.7202 1.05637C13.6819 0.855162 15.3419 1.30788 16.6497 2.11271C16.7 2.16301 16.8006 2.21331 16.8509 2.26361C17.2534 2.56542 17.6558 2.91754 18.0079 3.21935C18.0079 3.21935 18.0079 3.21935 18.0079 3.26965L18.0582 3.31995C18.0582 3.31995 18.1085 3.31995 18.1085 3.37025C18.5109 3.82297 18.863 4.27569 19.1145 4.7787C19.1145 4.7787 19.1145 4.82901 19.1648 4.82901L19.2151 4.87931C20.2212 6.84108 20.4727 9.20526 19.8188 11.5191Z" opacity='1' fill="#CB1211" stroke="#CB1211" stroke-miterlimit="10"/>
<path d="M16.3984 7.94764C16.2475 5.78466 14.2857 4.2253 12.0725 4.47681C7.4447 5.03013 8.24953 11.7203 12.0222 12.173C12.0222 12.173 12.0222 12.173 12.0725 12.173C12.4749 12.1227 12.827 12.0724 13.2294 12.0221H13.2797H13.33H13.3803C13.3803 12.0221 13.3803 12.0221 13.4306 12.0221C15.2918 11.4688 16.5493 9.85911 16.3984 7.94764ZM12.4246 11.5191C12.3743 11.5191 12.3743 11.5191 12.324 11.5694C10.9155 11.167 9.75858 10.2615 9.45677 8.75247C9.10466 6.9416 10.5131 5.03013 12.4749 5.03013C14.336 5.03013 15.8451 6.43858 15.7948 8.29975C15.7445 10.1106 14.1851 11.2676 12.4246 11.5191Z" opacity='1' fill="#CB1211" stroke="#CB1211" stroke-miterlimit="10"/>
</g>
<defs>
<clipPath id="clip0">
<rect width="25" height="25" fill="white"/>
</clipPath>
</defs>
</svg>
